<?xml version="1.0" encoding="UTF-8"?>
<!DOCTYPE svg PUBLIC "-//W3C//DTD SVG 1.1//EN" "http://www.w3.org/Graphics/SVG/1.1/DTD/svg11.dtd">
<!-- Creator: CorelDRAW -->
<svg xmlns="http://www.w3.org/2000/svg" xml:space="preserve" width="2238px" height="2921px" shape-rendering="geometricPrecision" text-rendering="geometricPrecision" image-rendering="optimizeQuality" fill-rule="evenodd" clip-rule="evenodd"
viewBox="0 0 2288.01 2986.28"
 xmlns:xlink="http://www.w3.org/1999/xlink">
 <g id="Ebene_x0020_1">
  <metadata id="CorelCorpID_0Corel-Layer"/>
  <path fill="#1F1A17" d="M1144.03 2986.28c538.701,-152.222 876.142,-658.326 876.142,-658.326 267.835,-375.736 267.835,-658.832 267.835,-658.832l-0.163036 -1488.76c-717.701,328.13 -1143.81,-180.367 -1143.81,-180.367 0,0 -426.166,508.497 -1143.82,180.367l-0.211343 1488.76c0,0 0,283.096 267.84,658.832 0,0 337.455,506.103 876.19,658.326z"/>
  <path fill="white" d="M847.439 227.372c162.782,-71.4303 263.685,-169.249 296.591,-204.305 32.8294,35.0551 133.762,132.874 296.562,204.305 178.387,78.2741 466.255,136.463 831.79,-23.2972 0,45.9013 0.188397,1465.05 0.188397,1465.05 0,2.77886 -3.60732,283.176 -264.956,649.864 -1.12676,1.64727 -85.8499,127.673 -234.774,270.446 -136.315,130.674 -355.84,302.428 -628.81,380.679 -272.975,-78.2512 -492.544,-250.005 -628.854,-380.679 -148.953,-142.774 -233.652,-268.799 -234.505,-270.051 -261.632,-367.082 -265.235,-647.48 -265.235,-650.283 0,0 0.188397,-1419.12 0.20772,-1465.03 365.516,159.761 653.403,101.562 831.795,23.2972z"/>
  <path fill="#1F1A17" d="M1131.61 98.4906c-244.167,223.248 -513.882,263.053 -697.148,257.133 -199.546,-6.45381 -343.119,-66.8834 -344.53,-67.5041l-25.5954 -10.9294 0 27.8308 0 1352.28 0.245158 1.52167c1.68591,10.1396 42.0826,249.259 70.3409,310.482 186.489,404.049 449.157,640.491 636.656,767.667 203.693,138.164 361.22,179.934 367.814,181.681l4.63384 1.17144 4.59037 -1.17144c6.58424,-1.7475 164.111,-43.5173 367.804,-181.681 187.48,-127.176 450.148,-363.618 636.656,-767.682 28.2825,-61.2085 68.6502,-300.328 70.3264,-310.467l0.269311 -1.52167 0 -1380.12 -25.6232 10.9391c-1.39728,0.620744 -144.985,61.0503 -344.502,67.5041 -183.295,5.92002 -452.971,-33.8849 -697.133,-257.133l-12.3883 -11.3388 -12.4173 11.3388z"/>
  <path fill="#1F1A17" d="M866.05 269.797c132.134,-58.0009 225.965,-133.246 277.98,-181.691 51.9372,48.4446 145.793,123.69 277.912,181.691 176.177,77.3068 453.929,136.078 804.105,3.20275 0.0241535,162.907 0.211343,1396.13 0.211343,1396.13 -0.0386455,2.40327 -5.14831,270.533 -256.387,622.943l-0.544661 0.756004 -0.506015 0.813972c-3.25106,4.82707 -324.931,478.277 -824.791,628.078 -499.909,-149.801 -821.594,-623.251 -824.825,-628.078l-0.525338 -0.746342 -0.53983 -0.823633c-251.258,-352.41 -256.353,-620.54 -256.367,-623.213 0,0 0.167867,-1232.95 0.187189,-1395.86 350.176,132.875 627.909,74.104 804.091,-3.20275z"/>
  <path fill="#DC351B" d="M77.3781 294.847c0,176.668 -0.173905,1373.86 -0.173905,1373.86 0.0434762,2.63031 6.61805,268.072 253.537,614.452l0.765665 1.08811 0.5193 0.813972c2.28371,3.37665 167.753,246.788 444.418,438.387l0 -2403.44c-170.772,54.3936 -409.887,79.1654 -699.065,-25.1619z"/>
  <path fill="#00923F" d="M2210.64 294.847c-289.183,104.327 -528.279,79.5555 -699.079,25.1619l0 2403.51c276.794,-191.618 442.143,-435.073 444.46,-438.488l0.751173 -1.13159 0.543453 -0.751173c246.706,-346.135 253.445,-611.557 253.488,-614.019 0,0 -0.164244,-1331.94 -0.164244,-1374.28z"/>
  <path fill="white" d="M1415.77 283.929c-124.061,-54.4226 -214.709,-123.469 -271.737,-175.035 -57.0819,51.5664 -147.769,120.613 -271.786,175.035 -28.9624,12.7156 -60.9827,24.9928 -95.8011,36.0805l0 2403.44c106.942,74.0111 230.42,140.312 367.587,182.037 137.113,-41.7251 260.64,-107.983 367.53,-181.975l0 -2403.51c-34.81,-11.0876 -66.8544,-23.3649 -95.7927,-36.0805z"/>
  <path fill="#1F1A17" d="M1322.71 1347.24c-6.55163,-20.7164 -177.55,-561.927 -177.55,-561.927l-14.8834 45.9544c0,0 -160.214,495.444 -166.841,515.972 -21.5932,0 -597.309,0 -597.309,0 0,0 469.424,349.053 486.614,361.812 -6.71829,20.365 -189.821,575.741 -189.821,575.741 0,0 464.482,-341.833 482.068,-354.766 17.5704,12.933 481.841,354.578 481.841,354.578 0,0 -181.099,-555.352 -187.693,-575.567 17.0028,-12.7301 482.424,-361.797 482.424,-361.797 0,0 -577.108,0 -598.85,0z"/>
  <path fill="#1F1A17" d="M597.54 881.517l6.87891 -4.58916 0 -116.321 -23.5533 14.5984c-41.6152,25.7452 -63.0587,38.1142 -95.085,38.1142 -50.6945,0 -86.0914,-39.9873 -86.0914,-97.2274 0,-56.6628 36.0865,-96.2021 87.7628,-96.2021 27.9564,0 56.2776,11.0587 89.136,34.8196l24.4977 17.6912 0 -119.77 -6.03112 -4.62418c-30.1846,-23.2779 -69.1369,-35.5793 -112.616,-35.5793 -122.597,0 -186.749,103.248 -186.749,205.249 0,97.8348 56.7486,203.105 181.306,203.105 44.8759,0 77.5471,-10.6396 120.544,-39.2651z"/>
  <path fill="#1F1A17" d="M1853.18 817.64c0,-16.5777 0,-40.9739 0,-57.5577 23.9916,0 129.942,0 129.942,0l0 -98.2974c0,0 -105.95,0 -129.942,0 0,-14.8109 0,-31.4176 0,-46.2056 24.2754,0 136.223,0 136.223,0l0 -98.2865 -15.4377 0 -222.676 0 0 398.649 241.013 0 0 -98.3022c0,0 -114.717,0 -139.123,0z"/>
  <path fill="#1F1A17" d="M1132.3 553.6c23.7223,0 125.337,0 125.337,0l0 -98.278c0,0 -101.615,0 -125.337,0 0,-15.6249 0,-35.4742 0,-51.0942 23.7223,0 125.337,0 125.337,0l0 -98.2925 -15.4413 0 -211.824 0 0 398.655 101.928 0c0,0 0,-126.133 0,-150.991z"/>
  <path fill="#1F1A17" d="M1190.29 2226.39l137.253 398.664 -109.356 0c0,0 -18.3796,-57.251 -23.4083,-72.813 -16.8386,0 -87.3293,0 -104.601,0 -4.67732,15.963 -21.3191,72.813 -21.3191,72.813l-107.766 0 124.557 -398.664 93.6478 0 10.9922 0zm-72.2829 230.806c16.521,0 29.1255,0 45.9556,0 -5.83789,-18.1489 -13.352,-41.4667 -24.0496,-74.8311 -9.80631,33.4707 -16.69,56.9998 -21.906,74.8311z"/>
  <polygon fill="#FFF500" points="1311.4,1362.67 1875.25,1362.67 1421.04,1703.32 1597.22,2243.68 1144.98,1910.83 692.731,2243.68 870.905,1703.32 412.772,1362.67 974.65,1362.67 1144.98,836.025 "/>
  <path fill="#FFF500" d="M588.976 868.672c-39.6986,26.4094 -69.7782,36.6782 -111.98,36.6782 -110.71,0 -165.869,-92.7771 -165.869,-187.674 0,-98.1331 62.2495,-189.803 171.312,-189.803 39.6829,0 75.2103,10.7845 103.185,32.3536l0 81.9491c-31.3319,-22.633 -63.0635,-37.7386 -98.1718,-37.7386 -60.6071,0 -103.204,46.3747 -103.204,111.654 0,65.7699 42.2021,112.669 101.533,112.669 37.1939,0 62.2507,-15.0802 103.196,-40.4305l0 80.3417z"/>
  <polygon fill="#FFF500" points="1976.87,900.485 1766.72,900.485 1766.72,532.739 1973.96,532.739 1973.96,600.118 1837.71,600.118 1837.71,677.242 1967.68,677.242 1967.68,744.644 1837.71,744.644 1837.71,833.082 1976.87,833.082 "/>
  <polygon fill="#FFF500" points="1242.2,388.781 1116.85,388.781 1116.85,470.75 1242.2,470.75 1242.2,538.162 1116.85,538.162 1116.85,689.158 1045.83,689.158 1045.83,321.378 1242.2,321.378 "/>
  <path fill="#FFF500" d="M1305.89 2609.59l-76.4337 0 -23.4035 -72.7877 -127.447 0 -21.3046 72.7877 -75.1813 0 114.87 -367.746 82.315 0 126.585 367.746zm-166.701 -279.853l-41.765 142.874 87.7242 0 -45.9592 -142.874z"/>
 </g>
</svg>
